<?xml version="1.0" standalone="no"?>
<!DOCTYPE svg PUBLIC "-//W3C//DTD SVG 20010904//EN"
 "http://www.w3.org/TR/2001/REC-SVG-20010904/DTD/svg10.dtd">
<svg version="1.0" xmlns="http://www.w3.org/2000/svg"
 width="200.000000pt" height="200.000000pt" viewBox="0 0 200.000000 200.000000"
 preserveAspectRatio="xMidYMid meet">
<metadata>
Created by potrace 1.14, written by Peter Selinger 2001-2017
</metadata>
<g transform="translate(0.000000,200.000000) scale(0.100000,-0.100000)"
fill="#000000" stroke="none">
<path d="M285 1578 l0 -143 -143 0 -142 0 2 -430 3 -430 137 0 c114 0 137 -2
140 -15 2 -8 4 -72 3 -142 l-1 -128 288 0 288 0 0 145 0 145 -57 0 c-32 1
-160 1 -285 0 l-228 0 0 425 0 425 284 0 c255 0 285 2 288 16 2 9 2 75 0 145
l-3 129 -287 0 -287 0 0 -142z"/>
<path d="M1140 1575 l0 -145 285 0 285 0 0 -425 0 -425 -242 0 c-134 1 -262 1
-285 1 l-43 -1 0 -145 0 -145 288 0 288 0 -1 135 c0 75 2 139 5 143 3 4 66 7
140 7 l135 0 0 430 0 430 -137 0 c-86 0 -138 4 -139 10 -1 5 -2 69 -3 140 l-1
130 -287 3 -288 2 0 -145z"/>
<path d="M570 1005 l0 -145 60 0 c33 0 170 -1 305 -1 135 0 301 1 370 1 l125
0 0 145 0 145 -430 0 -430 0 0 -145z"/>
</g>
</svg>
